<?xml version="1.0" encoding="utf-8"?>
<!-- Generator: Adobe Illustrator 26.5.0, SVG Export Plug-In . SVG Version: 6.00 Build 0)  -->
<svg version="1.1" xmlns="http://www.w3.org/2000/svg" xmlns:xlink="http://www.w3.org/1999/xlink" x="0px" y="0px"
	 viewBox="0 0 360 360" style="enable-background:new 0 0 360 360;" xml:space="preserve">
<style type="text/css">
	.st0{fill:#ED202E;}
	.st1{fill:#F6A9BF;}
	.st2{fill:#FFFFFF;}
</style>
<g id="Layer_2">
	<path d="M231.24,237.97c4.88-29.67,26.02-41.87,26.02-41.87s24.8,18.29,25.61,57.32L346.28,360H35.71c0,0,24.8-83.01,39.02-101.71
		c0,0-3.25-30.49,14.23-54.88c0,0,26.02,13.75,41.46,43.05L231.24,237.97z"/>
</g>
<g id="Layer_3">
	<polygon class="st0" points="176.76,158.65 137.84,247.89 215.67,247.89 	"/>
	<circle class="st1" cx="176.12" cy="151.37" r="16.87"/>
</g>
<g id="Layer_4">
	<ellipse class="st2" cx="234.82" cy="308.86" rx="22.74" ry="19.57"/>
	<ellipse class="st2" cx="132.2" cy="305.26" rx="22.74" ry="19.57"/>
	<ellipse cx="233.21" cy="307.16" rx="17.55" ry="13.82"/>
	<ellipse cx="132.2" cy="302.9" rx="17.55" ry="13.82"/>
	<ellipse class="st2" cx="229.61" cy="297.48" rx="7.32" ry="2.03"/>
	<ellipse class="st2" cx="128.04" cy="294.34" rx="7.32" ry="2.03"/>
</g>
</svg>
