<?xml version="1.0" encoding="utf-8"?>
<!-- Generator: Adobe Illustrator 26.5.0, SVG Export Plug-In . SVG Version: 6.00 Build 0)  -->
<svg version="1.1" id="Layer_1" xmlns="http://www.w3.org/2000/svg" xmlns:xlink="http://www.w3.org/1999/xlink" x="0px" y="0px"
	 viewBox="0 0 144 144" style="enable-background:new 0 0 144 144;" xml:space="preserve">
<style type="text/css">
	.st0{fill:#353C32;}
	.st1{fill:none;stroke:#848F7E;stroke-miterlimit:10;}
	.st2{fill:#848F7E;}
</style>
<path class="st0" d="M61.8,113.2c5.02,7.18,14.59-13.41,14.59-13.41S55.27,103.88,61.8,113.2z"/>
<path class="st0" d="M50.01,40.27c2.94-8.25-19.39-4.11-19.39-4.11S46.19,51,50.01,40.27z"/>
<path class="st0" d="M51.17,42.67c-3.68-7.95-16.72,10.64-16.72,10.64S55.95,52.99,51.17,42.67z"/>
<polyline class="st1" points="62.94,16.71 71.15,8.34 134.26,70.74 71.15,133.66 8.94,71.71 30.59,49.66 "/>
<g>
	<g>
		<path class="st0" d="M40.31,22.03c6.84,0,16.53-0.86,19.81-1.58c-0.14,5.59-0.57,14.77-0.57,31.13v14.63
			c7.55-7.17,14.54-11.33,22.8-11.33c8.84,0,14.82,4.02,18.81,9.9c2.99,4.73,4.85,12.19,4.85,19.8c0,21.52-10.97,35.57-31.5,35.57
			c-6.56,0-13.54-2.01-16.82-4.3c-1.43,0.86-4.42,2.58-6.84,4.02l-1.14-0.72c0.14-4.45,0.43-20.08,0.43-36.72V47.56
			c0-12.19-0.29-16.5-0.57-19.51c0-2.01-1.43-2.29-9.55-2.29L40.31,22.03z M95.18,85.58c0-7.17-1.57-13.63-4.42-18.07
			c-2.85-4.16-6.98-6.46-12.54-6.46c-7.84,0-14.25,5.16-17.25,10.19c-1.14,2.01-1.57,3.59-1.57,17.36c0,16.35,0.71,17.36,1.85,19.51
			c2.85,5.59,8.41,7.89,13.83,7.89C89.91,115.99,95.18,101.36,95.18,85.58z"/>
	</g>
</g>
<g>
	<g>
		<path class="st2" d="M37.64,19.28c6.84,0,16.53-0.86,19.81-1.58c-0.14,5.59-0.57,14.77-0.57,31.13v14.63
			c7.55-7.17,14.54-11.33,22.8-11.33c8.84,0,14.82,4.02,18.81,9.9c2.99,4.73,4.85,12.19,4.85,19.8c0,21.52-10.97,35.57-31.5,35.57
			c-6.56,0-13.54-2.01-16.82-4.3c-1.43,0.86-4.42,2.58-6.84,4.02l-1.14-0.72c0.14-4.45,0.43-20.08,0.43-36.72V44.82
			c0-12.19-0.29-16.5-0.57-19.51c0-2.01-1.43-2.29-9.55-2.29L37.64,19.28z M92.51,82.83c0-7.17-1.57-13.63-4.42-18.07
			c-2.85-4.16-6.98-6.46-12.54-6.46c-7.84,0-14.25,5.16-17.25,10.19c-1.14,2.01-1.57,3.59-1.57,17.36c0,16.35,0.71,17.36,1.85,19.51
			c2.85,5.59,8.41,7.89,13.83,7.89C87.24,113.24,92.51,98.61,92.51,82.83z"/>
	</g>
</g>
</svg>
